<?xml version="1.0" encoding="utf-8"?>
<!-- Generator: Adobe Illustrator 18.1.0, SVG Export Plug-In . SVG Version: 6.00 Build 0)  -->
<svg version="1.1" id="Layer_1" xmlns="http://www.w3.org/2000/svg" xmlns:xlink="http://www.w3.org/1999/xlink" x="0px" y="0px"
	 viewBox="0 0 256 256" style="enable-background:new 0 0 256 256;" xml:space="preserve">
<style type="text/css">
	.st0{fill:#4F9AD4;}
</style>
<path class="st0" d="M41,108.8c0,0-1.8-4.4-1.8-9.8s1.8-9.8,1.8-9.8l0,0l0,0h0c-0.3,0-37,9.8-37,9.8S40.7,108.8,41,108.8L41,108.8z"
	/>
<path class="st0" d="M215,89.1c0,0,1.8,4.4,1.8,9.8s-1.8,9.8-1.8,9.8l0,0l0,0h0c0.3,0,37-9.8,37-9.8S215.3,89.1,215,89.1L215,89.1z"
	/>
<circle class="st0" cx="90" cy="98.4" r="11.1"/>
<path class="st0" d="M195.8,84.7c1.4,0,2.6,1.2,2.6,2.6v23.4c0,1.4-1.2,2.6-2.6,2.6H60.2c-1.4,0-2.6-1.2-2.6-2.6V87.3
	c0-1.4,1.2-2.6,2.6-2.6H195.8 M195.8,71.3H60.2c-8.8,0-15.9,7.1-15.9,15.9v23.4c0,8.8,7.1,15.9,15.9,15.9h135.6
	c8.8,0,15.9-7.1,15.9-15.9V87.3C211.7,78.5,204.6,71.3,195.8,71.3L195.8,71.3z"/>
<path class="st0" d="M127,166.5c-20.1,0-37.1,30.3-37.1,66.3c0,4.1,0.2,8.1,0.6,12c10.3,3.3,22.8,5.2,36.4,5.2s26.1-1.9,36.4-5.2
	c0.4-3.9,0.7-7.9,0.7-12C164.1,196.9,147.1,166.5,127,166.5z M104.7,231.2c0,2.4-2,4.4-4.4,4.4c-2.4,0-4.4-2-4.4-4.4V216
	c0-2.4,2-4.4,4.4-4.4c2.4,0,4.4,2,4.4,4.4V231.2z M122.3,231.2c0,2.4-2,4.4-4.4,4.4s-4.4-2-4.4-4.4V216c0-2.4,2-4.4,4.4-4.4
	c2.4,0,4.4,2,4.4,4.4V231.2z M139.9,231.2c0,2.4-2,4.4-4.4,4.4c-2.4,0-4.4-2-4.4-4.4V216c0-2.4,2-4.4,4.4-4.4c2.4,0,4.4,2,4.4,4.4
	V231.2z M157.5,231.2c0,2.4-2,4.4-4.4,4.4c-2.4,0-4.4-2-4.4-4.4V216c0-2.4,2-4.4,4.4-4.4c2.4,0,4.4,2,4.4,4.4V231.2z"/>
<path class="st0" d="M63.8,115.2v11.4h91.6c1.7,0,3.1,1.4,3.1,3.1c0,1.7-1.4,3.1-3.1,3.1H63.8v89.1c0,7.6,6.7,14.4,17.6,19.5
	c-0.2-2.8-0.3-5.6-0.3-8.5c0-42.1,20.1-75,45.8-75c25.7,0,45.8,33,45.8,75c0,2.9-0.1,5.7-0.3,8.5c10.9-5.1,17.6-11.9,17.6-19.5
	V115.2H63.8z"/>
<path class="st0" d="M127,57.8c-2.2,0-4-1.8-4-4c0-2.2,1.8-4,4-4h62.7c-0.7-2.2-1.5-4.4-2.5-6.5H150c-3.7,0-6.7-3-6.7-6.7
	s3-6.7,6.7-6.7h29.6C167.5,13.8,148.5,3.5,127,3.5c-33.6,0-61.4,25.1-65.5,59.4h131.1c-0.2-1.7-0.5-3.4-0.8-5.1L127,57.8L127,57.8z
	 M131.6,29.8c3.8,0,6.9,3.1,6.9,6.9c0,3.8-3.1,6.9-6.9,6.9c-3.8,0-6.9-3.1-6.9-6.9C124.7,32.9,127.8,29.8,131.6,29.8z"/>
<g>
</g>
<g>
</g>
<g>
</g>
<g>
</g>
<g>
</g>
<g>
</g>
</svg>
